<?xml version="1.0" encoding="UTF-8" standalone="no"?>
<svg
   xmlns:dc="http://purl.org/dc/elements/1.1/"
   xmlns:cc="http://creativecommons.org/ns#"
   xmlns:rdf="http://www.w3.org/1999/02/22-rdf-syntax-ns#"
   xmlns:svg="http://www.w3.org/2000/svg"
   xmlns="http://www.w3.org/2000/svg"
   xmlns:xlink="http://www.w3.org/1999/xlink"
   xmlns:sodipodi="http://sodipodi.sourceforge.net/DTD/sodipodi-0.dtd"
   xmlns:inkscape="http://www.inkscape.org/namespaces/inkscape"
   width="1544"
   height="500"
   id="svg2"
   version="1.1"
   inkscape:version="1.0.1 (3bc2e813f5, 2020-09-07)"
   sodipodi:docname="banner.svg"
   inkscape:export-filename="./banner-772x250.png"
   inkscape:export-xdpi="48"
   inkscape:export-ydpi="48">
  <defs
     id="defs4">
    <linearGradient
       id="linearGradient3759">
      <stop
         style="stop-color:#c2ced4;stop-opacity:1;"
         offset="0"
         id="stop3761" />
      <stop
         style="stop-color:#f4f4fa;stop-opacity:1;"
         offset="1"
         id="stop3763" />
    </linearGradient>
    <linearGradient
       id="linearGradient3960-5">
      <stop
         id="stop3962-6"
         offset="0"
         style="stop-color:#ffffff;stop-opacity:1;" />
      <stop
         id="stop3964-5"
         offset="1"
         style="stop-color:#ffffff;stop-opacity:0;" />
    </linearGradient>
    <radialGradient
       gradientTransform="matrix(-0.07008433,2.2837608,-1.994818,-0.06121722,16.676772,-14.18971)"
       gradientUnits="userSpaceOnUse"
       r="1.6851097"
       fy="4.0239768"
       fx="8.083169"
       cy="4.0239768"
       cx="8.083169"
       id="radialGradient3968-3"
       xlink:href="#linearGradient3960-5"
       inkscape:collect="always" />
    <linearGradient
       id="linearGradient3960">
      <stop
         id="stop3962"
         offset="0"
         style="stop-color:#ffffff;stop-opacity:1;" />
      <stop
         id="stop3964"
         offset="1"
         style="stop-color:#cececc;stop-opacity:1;" />
    </linearGradient>
    <linearGradient
       id="linearGradient3759-3">
      <stop
         style="stop-color:#c2ced4;stop-opacity:1;"
         offset="0"
         id="stop3761-9" />
      <stop
         style="stop-color:#f4f4fa;stop-opacity:1;"
         offset="1"
         id="stop3763-4" />
    </linearGradient>
    <linearGradient
       id="linearGradient3893-4">
      <stop
         style="stop-color:#604331;stop-opacity:0"
         offset="0"
         id="stop3895-2" />
      <stop
         style="stop-color:#b88767;stop-opacity:1;"
         offset="1"
         id="stop3897-0" />
    </linearGradient>
    <linearGradient
       id="linearGradient3922">
      <stop
         id="stop3924"
         offset="0"
         style="stop-color:#604331;stop-opacity:1;" />
      <stop
         id="stop3926"
         offset="1"
         style="stop-color:#b88767;stop-opacity:1;" />
    </linearGradient>
    <linearGradient
       id="linearGradient3877-9">
      <stop
         id="stop3879-9"
         offset="0"
         style="stop-color:#604331;stop-opacity:1;" />
      <stop
         id="stop3881-6"
         offset="1"
         style="stop-color:#b88767;stop-opacity:1;" />
    </linearGradient>
    <linearGradient
       gradientUnits="userSpaceOnUse"
       y2="708.31311"
       x2="263.82254"
       y1="776.68951"
       x1="200.07085"
       id="linearGradient3891"
       xlink:href="#linearGradient3877"
       inkscape:collect="always" />
    <linearGradient
       gradientUnits="userSpaceOnUse"
       y2="708.31311"
       x2="263.82254"
       y1="776.68951"
       x1="200.07085"
       id="linearGradient3883"
       xlink:href="#linearGradient3893-1"
       inkscape:collect="always" />
    <linearGradient
       id="linearGradient3877">
      <stop
         id="stop3879"
         offset="0"
         style="stop-color:#604331;stop-opacity:1;" />
      <stop
         id="stop3881"
         offset="1"
         style="stop-color:#b88767;stop-opacity:1;" />
    </linearGradient>
    <linearGradient
       id="linearGradient3893-1">
      <stop
         style="stop-color:#604331;stop-opacity:0"
         offset="0"
         id="stop3895-5" />
      <stop
         style="stop-color:#b88767;stop-opacity:1;"
         offset="1"
         id="stop3897-3" />
    </linearGradient>
    <mask
       maskUnits="userSpaceOnUse"
       id="mask4137">
      <g
         id="g4139"
         transform="matrix(0.35848989,0,0,0.35848989,-774.02411,929.34267)"
         style="opacity:0.90322583">
        <circle
           r="365.71429"
           cy="491.42856"
           cx="1394.2858"
           transform="translate(0,552.36218)"
           id="path4141"
           style="fill:#b3b3b3;fill-opacity:1;stroke:none" />
        <circle
           r="365.71429"
           cy="491.42856"
           cx="1394.2858"
           style="fill:#f2f2f2;fill-opacity:1;stroke:none"
           id="path4143"
           transform="matrix(0.87109375,0,0,0.87109375,182.01787,613.13896)" />
        <text
           id="text4145"
           y="780.93359"
           x="1411.4286"
           style="font-style:normal;font-weight:normal;line-height:0%;font-family:sans-serif;text-align:center;letter-spacing:0px;word-spacing:0px;text-anchor:middle;fill:#000000;fill-opacity:1;stroke:none"
           xml:space="preserve"><tspan
             y="780.93359"
             x="1411.4286"
             id="tspan4147"
             sodipodi:role="line"
             style="font-size:40px;line-height:1.25;font-family:sans-serif">12</tspan></text>
        <text
           id="text4149"
           y="1030.063"
           x="1134.1002"
           style="font-style:normal;font-weight:normal;line-height:0%;font-family:sans-serif;text-align:center;letter-spacing:0px;word-spacing:0px;text-anchor:middle;fill:#000000;fill-opacity:1;stroke:none"
           xml:space="preserve"><tspan
             y="1030.063"
             x="1134.1002"
             id="tspan4151"
             sodipodi:role="line"
             style="font-size:40px;line-height:1.25;font-family:sans-serif">9</tspan></text>
        <text
           transform="translate(0,552.36218)"
           id="text4153"
           y="345.71429"
           x="1182.8571"
           style="font-style:normal;font-weight:normal;line-height:0%;font-family:sans-serif;text-align:center;letter-spacing:0px;word-spacing:0px;text-anchor:middle;fill:#000000;fill-opacity:1;stroke:none"
           xml:space="preserve"><tspan
             y="345.71429"
             x="1182.8571"
             id="tspan4155"
             sodipodi:role="line"
             style="font-size:40px;line-height:1.25;font-family:sans-serif">10</tspan></text>
        <text
           transform="translate(0,552.36218)"
           id="text4157"
           y="260"
           x="1282.8571"
           style="font-style:normal;font-weight:normal;line-height:0%;font-family:sans-serif;text-align:center;letter-spacing:0px;word-spacing:0px;text-anchor:middle;fill:#000000;fill-opacity:1;stroke:none"
           xml:space="preserve"><tspan
             y="260"
             x="1282.8571"
             id="tspan4159"
             sodipodi:role="line"
             style="font-size:40px;line-height:1.25;font-family:sans-serif">11</tspan></text>
        <text
           transform="translate(0,552.36218)"
           id="text4161"
           y="254.28571"
           x="1525.7144"
           style="font-style:normal;font-weight:normal;line-height:0%;font-family:sans-serif;text-align:center;letter-spacing:0px;word-spacing:0px;text-anchor:middle;fill:#000000;fill-opacity:1;stroke:none"
           xml:space="preserve"><tspan
             y="254.28571"
             x="1525.7144"
             id="tspan4163"
             sodipodi:role="line"
             style="font-size:40px;line-height:1.25;font-family:sans-serif">1</tspan></text>
        <path
           inkscape:transform-center-y="-99.531645"
           inkscape:transform-center-x="73.55135"
           inkscape:connector-curvature="0"
           id="path4165"
           d="m 1408.5924,1059.8426 -138.6774,-171.125 5.6692,-27.93829 25.1404,7.0766 116.2931,186.91049 z"
           style="fill:#000000;stroke:none" />
        <path
           inkscape:transform-center-y="-78.346369"
           inkscape:transform-center-x="-45.739088"
           style="fill:#000000;stroke:none"
           d="m 1415.0061,1053.063 63.6584,-147.25313 22.1228,-6.5879 5.4078,18.05289 -84.1052,139.15034 z"
           id="path4167"
           inkscape:connector-curvature="0" />
        <circle
           r="365.71429"
           cy="491.42856"
           cx="1394.2858"
           transform="matrix(0.34849706,-0.2307546,0.15527413,0.2345027,727.78943,1081.7158)"
           id="path4169"
           style="opacity:0.60931899;fill:#f9f9f9;fill-opacity:1;stroke:none" />
      </g>
    </mask>
    <clipPath
       id="clipPath4194"
       clipPathUnits="userSpaceOnUse">
      <path
         inkscape:connector-curvature="0"
         id="path4196"
         d="M 0,252 252,252 252,0 0,0 0,252 Z" />
    </clipPath>
    <font
       horiz-adv-x="1024"
       id="font4216"
       inkscape:label="fonte 1">
      <font-face
         units-per-em="1024"
         id="font-face4218"
         font-family="SVGFont 1" />
      <missing-glyph
         d="M0,0h1000v1024h-1000z"
         id="missing-glyph4220" />
    </font>
  </defs>
  <sodipodi:namedview
     id="base"
     pagecolor="#ffffff"
     bordercolor="#666666"
     borderopacity="1.0"
     inkscape:pageopacity="0.0"
     inkscape:pageshadow="2"
     inkscape:zoom="0.44805772"
     inkscape:cx="1152.0651"
     inkscape:cy="-31.045522"
     inkscape:document-units="px"
     inkscape:current-layer="layer1"
     showgrid="false"
     inkscape:window-width="1857"
     inkscape:window-height="1021"
     inkscape:window-x="63"
     inkscape:window-y="22"
     inkscape:window-maximized="1"
     borderlayer="true"
     inkscape:snap-to-guides="true"
     inkscape:document-rotation="0" />
  <metadata
     id="metadata7">
    <rdf:RDF>
      <cc:Work
         rdf:about="">
        <dc:format>image/svg+xml</dc:format>
        <dc:type
           rdf:resource="http://purl.org/dc/dcmitype/StillImage" />
        <dc:title />
      </cc:Work>
    </rdf:RDF>
  </metadata>
  <g
     inkscape:label="Calque 1"
     inkscape:groupmode="layer"
     id="layer1"
     transform="translate(0,-552.36218)">
    <rect
       style="fill:#9b5c8f;fill-opacity:1;stroke:none;stroke-width:3.43883133"
       id="rect3304"
       width="1550"
       height="500"
       x="-1550"
       y="552.36218"
       ry="0"
       transform="scale(-1,1)" />
    <g
       id="g909"
       transform="translate(829.22513,-239.13122)">
      <path
         d="m -141.74426,965.70486 c 2.12088,-2.8783 5.30226,-4.39329 9.544,-4.69623 7.72607,-0.60597 12.11936,3.02984 13.17987,10.90745 4.69622,31.66242 9.84693,58.47572 15.30131,80.44292 l 33.176395,-63.17199 c 3.02984,-5.75673 6.8171,-8.78657 11.36193,-9.08951 6.6657,-0.45449 10.7559,3.78726 12.42229,12.72538 3.78726,20.14892 8.63503,37.26702 14.39177,51.80992 3.93881,-38.4797 10.60451,-66.2014 19.99755,-83.32094 2.27242,-4.24175 5.6051999,-6.36262 9.9984799,-6.6657 3.48432,-0.30299 6.66571,0.75746 9.544,3.02983 2.8783001,2.27242 4.3932701,5.15072 4.6962101,8.63504 0.15149,2.7269 -0.30298,4.99916 -1.51499,7.27158 -5.9081201,10.90745 -10.75589011,29.23859 -14.6942601,54.68789 -3.78726,24.6938 -5.15071,43.9329 -4.24174,57.7188 0.30298,3.7872 -0.30298,7.1202 -1.8179299,9.9984 -1.81793,3.3329 -4.54483,5.1507 -8.02901,5.4537 -3.93881,0.303 -8.02901,-1.5149 -11.96782,-5.6052 -14.08868,-14.3918 -25.29936,-35.903 -33.47918,-64.536 -9.84694,19.3905 -17.11808,33.9348 -21.81431,43.6301 -8.93797,17.1181 -16.512495,25.9049 -22.875555,26.3591 -4.09034,0.303 -7.57467,-3.1814 -10.6045,-10.4529 -7.72607,-19.8462 -16.05831,-58.173 -24.99657,-114.98191 -0.60597,-3.93881 0.30298,-7.42313 2.42381,-10.15003 z"
         fill="#ffffff"
         id="path869"
         style="fill:#ffffff;stroke-width:1.45574"
         sodipodi:nodetypes="ccccccccccscccccccccccccc" />
      <path
         style="vector-effect:none;fill:#ffffff;fill-opacity:1;stroke:none;stroke-width:1.88498;stroke-linecap:round;stroke-linejoin:round;stroke-miterlimit:4;stroke-dasharray:none;stroke-dashoffset:64.252;stroke-opacity:0;paint-order:fill markers stroke"
         d="m -115.80046,1003.8528 c 0,0 5.438,-0.4648 7.9581,-0.9953 2.52,-0.5306 4.3105,-1.0608 5.3715,-1.5913 l 1.5913,-0.5969 c 2.652705,-0.2653 4.443105,-2.18799 5.371605,-5.7691 1.0611,-3.71368 0.9287,-7.29464 -0.3977,-10.74311 -1.3263,-3.44844 -3.3157,-5.1066 -5.968305,-4.97394 -17.2423,1.45894 -31.4337,2.18812 -42.5748,2.18812 -4.6422,0 7.522,-0.1988 0.4924,-0.59682 -6.8969,-0.39791 -12.6671,-0.72919 -17.3092,-0.99443 l -7.1621,-0.59687 c -2.6526,-0.13266 -4.642,1.59122 -5.9684,5.17232 -1.3263,3.44844 -1.5252,7.02936 -0.5968,10.74312 1.0611,3.58107 2.9181,5.43811 5.5708,5.57071 l 16.7115,1.5913 z"
         id="path913"
         inkscape:connector-curvature="0"
         sodipodi:nodetypes="cccccccscccccccc" />
      <path
         style="vector-effect:none;fill:#ffffff;fill-opacity:1;stroke:none;stroke-width:1.88498;stroke-linecap:round;stroke-linejoin:round;stroke-miterlimit:4;stroke-dasharray:none;stroke-dashoffset:64.252;stroke-opacity:0;paint-order:fill markers stroke"
         d="m -115.51699,1037.5386 c 0,0 5.438,-0.4648 7.9581,-0.9953 2.52,-0.5305 4.3105,-1.0607 5.3715,-1.5913 l 1.5913,-0.5968 c 2.652705,-0.2653 4.443105,-2.1881 5.371605,-5.7692 1.0611,-3.7136 0.9287,-7.2946 -0.3977,-10.7431 -1.3263,-3.4484 -3.3157,-5.1066 -5.968305,-4.9739 -17.24229,1.4589 -25.43369,2.1881 -36.57479,2.1881 -4.6422,0 7.522,-0.1988 0.4924,-0.5968 -6.8969,-0.3979 -12.6671,-0.7292 -17.3092,-0.9944 l -7.1621,-0.5969 c -2.6526,-0.1327 -4.642,1.5912 -5.9684,5.1723 -1.3263,3.4484 -1.5252,7.0294 -0.5968,10.7431 1.0611,3.5811 2.9181,5.4382 5.5708,5.5708 l 16.7115,1.5913 z"
         id="path924"
         inkscape:connector-curvature="0"
         sodipodi:nodetypes="cccccccscccccccc" />
    </g>
  </g>
</svg>
