<?xml version="1.0" encoding="UTF-8" standalone="no"?>
<svg
   width="256"
   height="256"
   id="svg2"
   version="1.1"
   sodipodi:docname="icon.svg"
   inkscape:version="1.2.2 (b0a8486541, 2022-12-01)"
   xmlns:inkscape="http://www.inkscape.org/namespaces/inkscape"
   xmlns:sodipodi="http://sodipodi.sourceforge.net/DTD/sodipodi-0.dtd"
   xmlns="http://www.w3.org/2000/svg"
   xmlns:svg="http://www.w3.org/2000/svg">
  <sodipodi:namedview
     id="namedview12"
     pagecolor="#505050"
     bordercolor="#ffffff"
     borderopacity="1"
     inkscape:showpageshadow="0"
     inkscape:pageopacity="0"
     inkscape:pagecheckerboard="1"
     inkscape:deskcolor="#505050"
     showgrid="false"
     inkscape:zoom="0.921875"
     inkscape:cx="128"
     inkscape:cy="128.54237"
     inkscape:window-width="1200"
     inkscape:window-height="675"
     inkscape:window-x="100"
     inkscape:window-y="122"
     inkscape:window-maximized="0"
     inkscape:current-layer="svg2" />
  <defs
     id="defs4">
    <clipPath
       id="clipPath4194"
       clipPathUnits="userSpaceOnUse">
      <path
         id="path4196"
         d="M 0,252 252,252 252,0 0,0 0,252 Z" />
    </clipPath>
  </defs>
  <g
     id="layer1"
     transform="translate(0,-796.36218)">
    <path
       id="rect3304"
       style="fill:#9b5c8f"
       d="M 0,796.36218 H 256 V 1052.3622 H 0 Z" />
    <path
       id="path869"
       style="fill:#ffffff;stroke-width:1.45574"
       d="M 200.57227 855.67468 C 200.14619 855.67024 199.71679 855.68759 199.28125 855.72546 C 194.88797 856.02854 191.55367 858.14778 189.28125 862.38952 C 179.88822 879.50905 173.22396 907.23217 169.28516 945.71179 C 163.52842 931.16892 158.67983 914.05016 154.89258 893.90124 C 153.22619 884.96313 149.1364 880.72214 142.4707 881.17663 C 137.92588 881.47957 134.13921 884.50975 131.10938 890.26648 L 97.931641 953.43835 C 96.685237 948.41854 95.45703 943.11275 94.244141 937.58679 C 96.678356 937.0678 98.424949 936.54919 99.462891 936.03015 L 101.05469 935.43445 C 103.70738 935.16913 105.49728 933.24602 106.42578 929.66491 C 107.48688 925.95124 107.3557 922.36924 106.0293 918.92077 C 104.703 915.47234 102.71314 913.81546 100.06055 913.94812 C 96.121462 914.28142 92.760458 914.56598 89.623047 914.82312 C 89.003511 911.53302 88.389191 908.17458 87.78125 904.74109 C 89.563812 904.56699 92.090098 904.29818 93.808594 903.9364 C 96.328591 903.40587 98.118689 902.87517 99.179688 902.3446 L 100.77148 901.74695 C 103.42418 901.48163 105.21408 899.56047 106.14258 895.97937 C 107.20368 892.26569 107.07249 888.68369 105.74609 885.23523 C 104.4198 881.78679 102.42995 880.12991 99.777344 880.26257 C 94.157485 880.73809 88.895494 881.12763 83.923828 881.44812 C 83.490388 878.65533 83.05693 875.8676 82.630859 872.99499 C 81.570351 865.11739 77.177231 861.48082 69.451172 862.08679 C 65.209432 862.38973 62.02712 863.90576 59.90625 866.78405 L 59.908203 866.78405 C 57.787376 869.51095 56.878408 872.99369 57.484375 876.93249 C 57.755907 878.65827 58.022555 880.20762 58.292969 881.89929 C 58.065373 881.88351 57.986009 881.86887 57.695312 881.85241 C 50.798419 881.4545 45.026861 881.12351 40.384766 880.85827 L 33.222656 880.26257 C 30.570059 880.12991 28.582258 881.85335 27.255859 885.43445 C 25.929561 888.88288 25.729804 892.46288 26.658203 896.17663 C 27.719302 899.7577 29.575818 901.61433 32.228516 901.74695 L 48.941406 903.33874 L 61.949219 903.89929 C 62.628509 907.83288 63.30851 911.82797 63.980469 915.53796 C 63.979525 915.53791 63.97946 915.53801 63.978516 915.53796 C 57.081623 915.14005 51.312017 914.80906 46.669922 914.54382 L 39.507812 913.94812 C 36.855215 913.81546 34.865461 915.5389 33.539062 919.11999 C 32.212764 922.56843 32.013007 926.14842 32.941406 929.86218 C 34.002505 933.44325 35.859021 935.30183 38.511719 935.43445 L 55.224609 937.02429 L 68.246094 937.69616 C 73.197708 962.07294 77.948314 980.26803 82.482422 991.91491 C 85.512257 999.18647 88.995602 1002.671 93.085938 1002.368 C 99.448991 1001.9138 107.02298 993.12673 115.96094 976.00866 C 120.65716 966.31342 127.92846 951.76829 137.77539 932.3778 C 145.9552 961.01079 157.16719 982.52315 171.25586 996.91491 C 175.19467 1001.0052 179.28385 1002.8234 183.22266 1002.5204 C 186.70683 1002.2174 189.43402 1000.3981 191.25195 997.0653 C 192.7669 994.18705 193.37329 990.85451 193.07031 987.06726 C 192.16134 973.28138 193.52329 954.04225 197.31055 929.34851 C 201.24891 903.89922 206.09775 885.56845 212.00586 874.66101 C 213.21787 872.38859 213.67297 870.11642 213.52148 867.38952 C 213.21854 863.90521 211.70252 861.02718 208.82422 858.75476 C 206.30572 856.76644 203.55477 855.70574 200.57227 855.67468 z M 58.357422 882.29773 C 58.365184 882.34622 58.373098 882.39184 58.380859 882.4403 C 57.994137 882.442 57.582764 882.45007 57.203125 882.45007 C 54.874509 882.45007 56.772211 882.39782 58.357422 882.29773 z M 64.064453 916.01843 C 64.071192 916.05556 64.077246 916.09265 64.083984 916.12976 C 63.881024 916.13025 63.691209 916.13562 63.486328 916.13562 C 61.486319 916.13562 62.704294 916.09226 64.064453 916.01843 z " />
    <text
       xml:space="preserve"
       style="font-style:normal;font-variant:normal;font-weight:normal;font-stretch:normal;font-size:18.6667px;line-height:1.25;font-family:'DejaVu Sans';-inkscape-font-specification:'DejaVu Sans';letter-spacing:0px;word-spacing:0px;fill:#000000;fill-opacity:1;stroke:none;stroke-width:0.999999"
       x="330.04614"
       y="1469.9867"
       id="text888" />
  </g>
</svg>
